<svg xmlns="http://www.w3.org/2000/svg" viewBox="0 0 740 420"><path fill="#ad6fff" d="M 9.247636729859302 315.22772774085075 Q 9.25 315.23 8.98 316.91 8.71 318.58 8.54 320.7 8.37 322.82 8.65 325.29 8.93 327.76 10.38 330.56 11.83 333.37 15.13 336.64 18.43 339.9 23.36 342.94 28.29 345.97 34.74 348.01 41.19 350.04 48.04 350.98 54.89 351.91 61.18 351.03 67.47 350.14 73.39 347.15 79.32 344.16 84.3 339.09 89.29 334.02 93.27 326.49 97.25 318.95 100 308.79 102.75 298.64 103.99 285.78 105.23 272.92 104.5 258.22 103.77 243.52 100.56 227.92 97.35 212.32 91.9 195.44 86.44 178.57 80.23 162.38 74.01 146.2 68.75 131.91 63.49 117.62 59.95 103.7 56.4 89.77 55.87 76.28 55.35 62.8 58.94 50.71 62.54 38.62 70.73 28.81 78.91 19 91.17 12.37 103.42 5.74 119.89 2.82 136.36 -0.1 154.21 0.24 172.07 0.57 187.76 4.05 203.46 7.54 215.88 13.26 228.3 18.99 236.97 27.35 245.65 35.7 251.36 47.14 257.07 58.58 259.89 71.06 262.72 83.55 263.48 94.11 264.24 104.68 263.98 113.65 263.72 122.63 263.06 123.92 262.39 125.21 260.96 125.44 259.52 125.66 258.5 124.63 257.47 123.6 257.7 122.17 257.93 120.73 259.23 120.08 260.52 119.42 261.82 120.08 263.11 120.75 263.34 122.18 263.56 123.62 262.53 124.64 261.5 125.67 260.07 125.44 258.63 125.21 257.97 123.91 257.32 122.61 257.59 113.83 257.87 105.05 257.18 94.98 256.5 84.91 253.93 73.12 251.37 61.33 246.29 50.72 241.22 40.11 233.33 32.38 225.44 24.64 213.72 19.18 202.01 13.72 186.94 10.33 171.87 6.94 154.69 6.54 137.52 6.13 121.92 8.73 106.33 11.33 94.96 17.23 83.59 23.13 76.02 31.88 68.46 40.64 65.05 51.68 61.65 62.71 62.12 75.48 62.6 88.25 66.05 101.84 69.5 115.43 74.74 129.66 79.98 143.89 86.26 160.26 92.53 176.62 98.07 193.84 103.6 211.05 106.87 227.14 110.14 243.22 110.86 258.4 111.58 273.57 110.23 286.96 108.88 300.35 105.94 311.18 102.99 322.01 98.6 330.46 94.21 338.9 88.44 344.8 82.68 350.69 75.6 354.13 68.52 357.56 61.31 358.53 54.1 359.49 46.44 358.63 38.78 357.77 31.22 355.71 23.66 353.65 17.56 349.99 11.46 346.33 7.21 341.72 2.96 337.1 1.3 332.64 -0.36 328.18 -0.28 324.62 -0.21 321.06 0.69 318.11 1.6 315.17 2.75 313.14 3.9 311.11 5.06 310.1 6.22 309.09 6.86 308.51 7.49 307.93 8.53 307.78 9.58 307.63 10.52 308.12 11.45 308.61 11.92 309.56 12.38 310.51 12.21 311.55 12.03 312.59 11.27 313.33 10.51 314.07 9.88 314.65 Z"></path><path fill="#ad6fff" d="M 45.968106819828876 222.85804083846347 Q 45.97 222.86 50.2 219.64 54.43 216.42 60.14 213.12 65.85 209.81 71.57 207.21 77.29 204.6 81.92 203.02 86.55 201.43 90.43 201.09 94.31 200.75 97.72 202.06 101.13 203.37 104.01 205.79 106.88 208.2 110.06 210.04 113.23 211.88 117.81 212.21 122.38 212.53 128.96 211.05 135.53 209.57 143.53 206.25 151.53 202.94 160.85 197.98 170.17 193.03 171.62 193.02 173.08 193 173.94 194.17 174.81 195.33 174.38 196.72 173.94 198.1 172.56 198.57 171.19 199.03 170 198.19 168.82 197.35 168.8 195.9 168.79 194.44 169.95 193.58 171.12 192.71 172.51 193.15 173.89 193.58 174.36 194.96 174.82 196.33 173.98 197.52 173.14 198.7 163.77 203.98 154.39 209.26 145.86 213.55 137.32 217.83 129.32 220.05 121.32 222.27 114.74 221.49 108.17 220.71 104.05 218.34 99.92 215.98 98.2 213.98 96.48 211.99 95.2 210.98 93.92 209.96 91.41 209.98 88.9 210 84.76 211.14 80.62 212.27 75.29 214.6 69.97 216.94 64.58 220.01 59.2 223.08 55.24 225.61 51.28 228.14 48.97 230.39 46.66 232.64 45.63 233.17 44.6 233.7 43.45 233.52 42.31 233.34 41.49 232.53 40.67 231.71 40.48 230.57 40.3 229.42 40.82 228.39 41.34 227.36 43.66 225.11 Z"></path><path fill="#ad6fff" d="M 243.89703110265827 237.93005928369826 Q 243.9 237.93 241.99 241.96 240.09 245.98 236.34 251.62 232.6 257.26 227.42 264.16 222.23 271.06 216.71 277.9 211.19 284.74 205.67 290.45 200.15 296.16 194.88 300.66 189.61 305.17 185.14 308.15 180.66 311.13 177.25 312.77 173.84 314.42 170.94 314.91 168.03 315.4 165.02 314.41 162.02 313.41 159.53 310.62 157.03 307.83 155.53 303.51 154.03 299.19 153.39 294.31 152.76 289.44 153.02 284.5 153.27 279.57 154.76 274.7 156.25 269.82 158.67 265.54 161.08 261.27 163.67 258.09 166.27 254.91 168.95 252.72 171.64 250.54 174.61 249.13 177.59 247.73 180.64 247.14 183.68 246.55 186.79 247.05 189.9 247.56 192.78 249.23 195.65 250.9 198.35 253.9 201.04 256.91 203.72 261.72 206.4 266.53 208.82 272.58 211.23 278.63 213.55 284.85 215.87 291.07 218.26 296.56 220.65 302.04 222.83 305.65 225.02 309.26 226.85 311.15 228.69 313.04 230.82 313.9 232.95 314.77 235.69 314.05 238.44 313.33 241.25 311.47 244.06 309.61 247.56 306.7 251.06 303.79 255.67 298.86 260.29 293.93 264.52 288.18 268.74 282.43 271.58 277.58 274.42 272.72 275.97 269.37 277.52 266.03 278.6 263.34 279.68 260.66 281.45 259.43 283.21 258.21 285.24 258.92 287.26 259.63 287.88 261.68 288.5 263.74 287.2 265.45 285.9 267.15 283.75 267.11 281.61 267.06 280.38 265.29 279.16 263.53 279.87 261.51 280.58 259.48 282.63 258.86 284.69 258.25 286.4 259.55 288.1 260.84 288.06 262.99 288.01 265.13 286.78 267.74 285.55 270.35 283.64 273.69 281.72 277.03 278.64 282.04 275.56 287.06 271.43 293.56 267.3 300.06 262.72 306.12 258.13 312.19 254.22 315.77 250.32 319.35 247.2 321.28 244.08 323.22 240.95 324.3 237.82 325.38 234.75 325.44 231.69 325.5 228.94 324.5 226.19 323.5 223.75 321.59 221.31 319.68 219.15 316.93 216.99 314.17 214.68 310 212.36 305.82 209.76 300.24 207.16 294.65 204.49 288.74 201.82 282.82 199.26 277.6 196.7 272.37 194.44 268.64 192.17 264.91 190.47 262.82 188.77 260.73 187.16 259.69 185.56 258.66 183.69 258.46 181.82 258.26 180 258.86 178.17 259.45 176.27 260.76 174.36 262.07 172.27 264.38 170.18 266.69 168.22 269.9 166.26 273.1 165.01 276.68 163.75 280.27 163.52 284.26 163.29 288.24 163.69 292.21 164.08 296.17 164.63 299.03 165.18 301.89 166.2 303.69 167.23 305.49 169.05 305.9 170.87 306.3 173.81 305.31 176.76 304.31 180.99 302.01 185.23 299.71 190.38 295.66 195.53 291.61 200.85 286.2 206.16 280.79 211.33 273.9 216.49 267.01 221.16 259.94 225.84 252.87 229.31 247.57 232.79 242.27 234.82 238.92 236.85 235.57 237.67 233.19 238.48 230.82 239.16 229.9 239.84 228.98 240.94 228.63 242.03 228.29 243.12 228.65 244.21 229.02 244.88 229.95 245.54 230.88 245.53 232.03 245.52 233.18 244.71 235.56 Z"></path><path fill="#ad6fff" d="M 316.55683593749995 241 Q 316.56 241 316.78 243.38 316.99 245.75 317.2 248.81 317.4 251.88 317.57 255.16 317.74 258.44 317.87 261.7 318 264.97 318.11 268.23 318.21 271.48 318.42 274.5 318.63 277.52 319.01 280.27 319.39 283.03 319.74 285.33 320.09 287.63 320.58 289.7 321.07 291.77 321.52 294.07 321.97 296.38 322.29 298.4 322.61 300.42 323.1 302.53 323.6 304.64 323.97 306.74 324.34 308.84 321.77 309.45 319.21 310.05 316.11 308.84 313.01 307.62 312.57 305.53 312.14 303.44 312.15 301.21 312.17 298.97 312.21 296.23 312.26 293.49 312.49 289.77 312.73 286.05 313.33 281.53 313.94 277.01 314.84 272.1 315.74 267.19 317.04 262.12 318.33 257.04 319.73 252.54 321.13 248.04 322.45 244.43 323.77 240.82 325.32 237.91 326.88 234.99 328.79 232.88 330.7 230.77 332.85 229.47 335 228.17 337.2 227.52 339.41 226.86 341.59 226.56 343.77 226.25 345.99 226.31 348.21 226.36 350.73 227.42 353.26 228.48 355.42 230.93 357.58 233.38 358.79 237 360 240.61 360.5 245.39 360.99 250.18 360.85 256.37 360.7 262.56 360.04 269.69 359.37 276.81 358.83 283.2 358.29 289.58 358.42 294.32 358.54 299.05 359.13 302.1 359.72 305.15 360.93 306.25 362.14 307.36 364.23 307.36 366.32 307.36 369.16 306.78 372.01 306.2 375.95 304.52 379.9 302.85 384.68 300.29 389.46 297.74 394.06 294.57 398.66 291.39 402.4 287.93 406.14 284.46 409.37 280.55 412.61 276.64 414.77 276.14 416.93 275.65 418.61 277.1 420.28 278.56 420.08 280.77 419.89 282.98 417.99 284.12 416.08 285.26 414.04 284.4 412 283.53 411.5 281.36 411 279.2 412.46 277.53 413.92 275.85 416.13 276.05 418.34 276.25 419.48 278.15 420.62 280.05 419.75 282.09 418.88 284.14 415.61 288 412.34 291.87 408.31 295.56 404.29 299.26 399.36 302.92 394.43 306.58 389.16 309.68 383.88 312.78 378.72 314.92 373.55 317.06 369.17 317.61 364.8 318.16 361.19 317.31 357.59 316.46 355.06 314.52 352.54 312.58 351.36 309.79 350.19 307.01 349.73 303.13 349.27 299.25 349.3 294.14 349.33 289.03 349.6 282.73 349.87 276.42 349.83 269.66 349.78 262.9 349.38 257.33 348.97 251.75 348.26 247.27 347.56 242.78 345.67 240.67 343.78 238.56 341.55 238.8 339.32 239.05 337.94 239.94 336.56 240.83 335.34 242.82 334.13 244.82 332.89 248.03 331.66 251.24 330.44 255.38 329.23 259.52 328.31 264.23 327.38 268.93 326.85 273.58 326.31 278.23 326.04 282.34 325.77 286.44 325.76 289.97 325.74 293.49 325.78 296.24 325.83 298.98 325.84 301.22 325.85 303.46 325.84 306.02 325.83 308.59 325.74 310.92 325.65 313.26 324.98 315.2 324.3 317.14 320.89 317.24 317.47 317.34 314.52 315.54 311.58 313.74 311.41 311.96 311.24 310.18 311.04 307.76 310.85 305.34 310.51 303.07 310.17 300.8 309.98 298.71 309.79 296.62 309.57 294.54 309.34 292.46 309.07 290.72 308.79 288.99 308.58 286.6 308.36 284.22 308.11 281.09 307.87 277.96 307.83 274.72 307.79 271.49 307.89 268.23 308 264.97 308.13 261.7 308.26 258.44 308.43 255.16 308.6 251.88 308.8 248.81 309.01 245.75 309.22 243.38 309.44 241 309.44 239.5 309.44 238 309.78 236.95 310.12 235.91 311.01 235.26 311.9 234.62 313 234.62 314.1 234.62 314.99 235.26 315.88 235.91 316.22 236.95 316.56 238 316.56 239.5 Z"></path><path fill="#ad6fff" d="M 487.5481725636847 225.8193667681488 Q 487.55 225.82 487.23 224.54 486.91 223.26 486.49 222.29 486.06 221.31 484.77 220.68 483.47 220.05 481.68 219.7 479.89 219.35 477.37 219.16 474.84 218.96 472.13 218.94 469.42 218.91 467.52 219.05 465.63 219.18 464.12 219.75 462.61 220.31 461.18 221.46 459.74 222.61 457.93 224.42 456.11 226.23 453.78 228.81 451.44 231.4 448.73 234.63 446.02 237.86 443.29 241.5 440.56 245.14 438.1 248.88 435.65 252.63 433.9 256.17 432.16 259.71 430.99 263.02 429.82 266.34 429.02 269.28 428.22 272.23 428.01 274.9 427.8 277.57 428.62 279.73 429.44 281.9 432.18 282.88 434.93 283.86 438.26 284.1 441.6 284.35 444.45 284.47 447.3 284.6 450.1 284.65 452.91 284.71 455.8 284.63 458.7 284.54 461.61 283.98 464.52 283.41 467.23 282.17 469.93 280.93 472.72 279.17 475.52 277.41 478.1 275.74 480.69 274.07 483.78 271.73 486.87 269.39 489.62 269.02 492.37 268.64 494.28 270.65 496.2 272.66 495.71 275.39 495.21 278.12 492.71 279.32 490.21 280.52 487.77 279.21 485.32 277.89 484.95 275.14 484.58 272.39 486.58 270.48 488.59 268.56 491.32 269.05 494.05 269.55 495.25 272.05 496.46 274.55 495.14 277 493.83 279.44 490.66 281.66 487.49 283.89 484.66 285.7 481.83 287.51 478.29 289.71 474.76 291.91 470.81 293.59 466.86 295.26 462.95 296.04 459.05 296.81 455.82 296.9 452.6 296.99 449.65 296.9 446.7 296.81 443.56 296.64 440.41 296.47 437.06 296.1 433.71 295.73 430.15 294.71 426.6 293.69 423.74 291.69 420.87 289.69 419.22 286.79 417.58 283.88 417.04 280.26 416.51 276.64 416.96 272.92 417.4 269.19 418.42 265.84 419.43 262.5 420.88 258.73 422.33 254.97 424.34 250.85 426.35 246.72 428.89 242.64 431.43 238.56 434.2 234.55 436.97 230.54 439.75 226.97 442.53 223.4 445.19 220.38 447.84 217.35 450.5 214.95 453.17 212.55 456.19 210.78 459.21 209.02 462.11 208.24 465.01 207.47 467.43 207.43 469.85 207.39 472.04 207.55 474.23 207.71 476.35 207.98 478.47 208.25 480.38 208.67 482.28 209.1 484.06 209.64 485.83 210.19 487.79 211.18 489.75 212.17 491.11 213.39 492.47 214.61 493.21 215.99 493.95 217.37 494.44 219.01 494.92 220.66 494.96 222.03 494.99 223.39 494.84 224.61 494.69 225.83 494.47 227.14 494.25 228.46 493.85 229.6 493.46 230.75 493.2 231.61 492.95 232.47 491.95 233.1 490.94 233.73 489.75 233.65 488.57 233.57 487.66 232.81 486.74 232.05 486.45 230.89 486.16 229.74 486.6 228.64 487.05 227.53 487.3 226.68 Z"></path><path fill="#ad6fff" d="M 523.2829909982075 226.77006882682537 Q 523.28 226.77 523.35 230.03 523.43 233.28 523.3 237.27 523.18 241.25 523.14 245.55 523.11 249.85 523.48 253.48 523.85 257.11 524.78 259.53 525.72 261.95 527.11 263.25 528.51 264.54 530.47 265.42 532.44 266.29 534.44 267.02 536.44 267.75 538.15 267.59 539.86 267.43 541.65 266.19 543.45 264.94 545.54 262.43 547.63 259.92 549.45 256.09 551.28 252.27 552.55 247.3 553.83 242.33 554.72 236.61 555.61 230.89 556.02 225.66 556.43 220.42 556.4 216.63 556.38 212.84 555.84 209.16 555.3 205.48 555.75 203.9 556.21 202.32 557.5 201.31 558.79 200.3 560.44 200.24 562.08 200.18 563.44 201.1 564.81 202.02 564.72 203.58 564.64 205.15 564.81 207.75 564.97 210.36 565.02 214.96 565.07 219.57 564.89 228.48 564.7 237.4 565.89 250.78 567.08 264.16 569.6 280.46 572.11 296.76 574.63 312.44 577.14 328.12 579.02 341.75 580.91 355.38 581.35 366.86 581.8 378.34 580.07 387.4 578.35 396.46 573.98 402.97 569.6 409.48 562.3 413.52 555 417.57 545.54 418.67 536.08 419.78 525.11 417.08 514.14 414.38 503.5 408.53 492.87 402.67 485.07 395.69 477.27 388.72 473.11 380.93 468.95 373.15 469.54 364.46 470.14 355.77 477.1 346.51 484.06 337.26 495.62 328.86 507.18 320.47 519.66 314.43 532.14 308.4 543.96 304.5 555.77 300.6 565.05 298.41 574.32 296.22 581.86 294.78 589.4 293.34 590.82 293.66 592.24 293.97 592.82 295.3 593.4 296.63 592.67 297.88 591.93 299.14 590.49 299.28 589.04 299.42 588.08 298.33 587.11 297.24 587.43 295.83 587.74 294.41 589.07 293.83 590.4 293.25 591.65 293.98 592.91 294.72 593.05 296.16 593.19 297.61 592.1 298.57 591.01 299.54 583.47 300.98 575.93 302.42 566.84 304.55 557.74 306.68 546.31 310.42 534.89 314.16 522.88 319.91 510.88 325.65 499.97 333.32 489.06 340.98 482.58 348.85 476.1 356.71 475.31 363.76 474.53 370.81 478.1 377.5 481.67 384.2 488.85 390.68 496.03 397.16 505.84 402.71 515.65 408.27 525.57 410.89 535.49 413.52 543.82 412.78 552.15 412.03 558.43 408.88 564.71 405.73 568.49 400.34 572.27 394.95 573.85 386.71 575.44 378.47 575 367.36 574.57 356.24 572.69 342.69 570.82 329.13 568.3 313.43 565.79 297.74 563.26 281.29 560.72 264.84 558.82 251.22 556.91 237.59 556.04 228.51 555.16 219.42 555.34 213.34 555.52 207.26 555.86 204.79 556.21 202.32 557.5 201.31 558.79 200.3 560.44 200.24 562.08 200.18 563.44 201.1 564.81 202.02 565.37 203.56 565.93 205.11 566.13 209.02 566.33 212.93 566.15 217.02 565.98 221.11 565.59 226.64 565.2 232.18 564.5 238.49 563.8 244.79 562.39 250.89 560.98 256.99 558.43 262.29 555.89 267.59 552.23 271.33 548.58 275.07 544.39 276.84 540.2 278.61 536.43 278.47 532.67 278.33 529.73 277.09 526.78 275.86 523.86 273.81 520.94 271.76 518.56 268.71 516.18 265.65 515.05 261.88 513.93 258.1 513.69 253.83 513.45 249.57 513.7 245.08 513.94 240.59 514.38 236.5 514.82 232.41 515.39 229.13 515.95 225.86 516.87 223.43 517.78 221.01 518.52 219.56 519.25 218.12 520.36 217.59 521.47 217.05 522.68 217.27 523.89 217.49 524.74 218.38 525.59 219.27 525.75 220.49 525.92 221.71 525.33 222.8 524.75 223.88 524.02 225.33 Z"></path><path class="stroke-only" stroke="#ad6fff" stroke-width="32" fill="none" stroke-linecap="round" d="M 634 66 Q 634 66 634 65.5 634 65 634 65.5 634 66 633.5 70 633 74 632 79 631 84 630.5 92.5 630 101 629 109 628 117 628 124 628 131 628 137 628 143 628 149 628 155 629 162 630 169 630.5 174 631 179 632 183 633 187 633.5 191 634 195 634 199.5 634 204 634.5 205.5 635 207 635.5 209.5 636 212 636 214 636 216 636 218 636 220 636.5 222.5 637 225 637 227.5 637 230 637 232.5 637 235 637 237 637 239 637 241 637 243 637 245 637 247 637 249.5 637 252 637 254.5 637 257 637 258.5 637 260 637 262.5 637 265 637 267 637 269 637 271.5 637 274 637 276 637 278 637 279.5 637 281 637 282 637 283 637.5 284.5 638 286 638 287.5 638 289 638 290 638 291 638.5 292.5 639 294 639 295 639 296 639 298 639 300 639.5 301.5 640 303 640 303.5 640 304 640 305 640 306 640 305.5 L 640 305"></path><path class="stroke-only" stroke="#ad6fff" stroke-width="32" fill="none" stroke-linecap="round" d="M 495 76 Q 495 76 495.5 76 496 76 496.5 76 497 76 498.5 75 500 74 503 72.5 506 71 506.5 71 507 71 539.5 60.5 572 50 574 49.5 576 49 580 49 584 49 587.5 48.5 591 48 594.5 48 598 48 601.5 49 605 50 608.5 52 612 54 615.5 55.5 619 57 622.5 58.5 626 60 629.5 61 633 62 636.5 62 640 62 644.5 62 649 62 653 62 657 62 660 62 663 62 667.5 61.5 672 61 674 60 676 59 680.5 57 685 55 688.5 53.5 692 52 696.5 49 701 46 705 44.5 709 43 712 40.5 715 38 717.5 37 720 36 721 35.5 722 35 722.5 34.5 723 34 723.5 34 724 34 724 33.5 L 724 33"></path></svg>